HIERARCHY
ROOT ui
{
	 OFFSET 0 0 0
	 CHANNELS 3 XPosition YPosition Z Position
	 EndSite
	 {
	 OFFSET 0 -1 0
	 }
}
ROOT li
{
	 OFFSET 0 0 0
	 CHANNELS 3 XPosition YPosition Z Position
	 EndSite
	 {
	 OFFSET 0 -1 0
	 }
}
ROOT ul
{
	 OFFSET 0 0 0
	 CHANNELS 3 XPosition YPosition Z Position
	 EndSite
	 {
	 OFFSET 0 -1 0
	 }
}
ROOT ll
{
	 OFFSET 0 0 0
	 CHANNELS 3 XPosition YPosition Z Position
	 EndSite
	 {
	 OFFSET 0 -1 0
	 }
}
ROOT tt
{
	 OFFSET 0 0 0
	 CHANNELS 3 XPosition YPosition Z Position
	 EndSite
	 {
	 OFFSET 0 -1 0
	 }
}
ROOT tb
{
	 OFFSET 0 0 0
	 CHANNELS 3 XPosition YPosition Z Position
	 EndSite
	 {
	 OFFSET 0 -1 0
	 }
}
ROOT td
{
	 OFFSET 0 0 0
	 CHANNELS 3 XPosition YPosition Z Position
	 EndSite
	 {
	 OFFSET 0 -1 0
	 }
}
ROOT v
{
	 OFFSET 0 0 0
	 CHANNELS 3 XPosition YPosition Z Position
	 EndSite
	 {
	 OFFSET 0 -1 0
	 }
}
ROOT bn
{
	 OFFSET 0 0 0
	 CHANNELS 3 XPosition YPosition Z Position
	 EndSite
	 {
	 OFFSET 0 -1 0
	 }
}
MOTION
Frames: 32
Frame Time: 0.002
0.012388120651245118	-2.990880012512207E-4	0		0.5626063842773438	-2.557720703125	0		-1.05089501953125	-0.011567009925842284	0		-0.44110171508789064	-2.8008955078125	0		1.72581005859375	-1.06576904296875	0		2.8686611328125	-0.07057081604003906	0		4.2786669921875	0.5276309204101562	0		5.95612353515625	0.49990090942382814	0		-0.3306625061035156	5.87842041015625	0		
-0.0025102970600128175	0.013928202629089356	0		0.6284750366210937	-2.56068701171875	0		-0.9888609619140625	-0.002483504056930542	0		-0.45206072998046876	-2.79172900390625	0		1.684200927734375	-1.0321361083984375	0		2.8312919921875	-0.08800052642822266	0		4.25547119140625	0.521999755859375	0		5.95358056640625	0.44641693115234377	0		-0.3479299011230469	5.86967822265625	0		
1.4097200334072112E-4	-0.002101629018783569	0		0.5733900146484375	-2.558859375	0		-1.072067138671875	-0.008244674682617187	0		-0.4083927001953125	-2.807366455078125	0		1.6674483642578124	-1.00787060546875	0		2.829373046875	-0.07495306396484375	0		4.2361826171875	0.5103046569824219	0		5.9429091796875	0.46414498901367185	0		-0.21474429321289062	5.889720703125	0		
2.448599971830845E-5	-0.0020830159187316894	0		0.599225341796875	-2.562225341796875	0		-1.0009400024414064	0.007722395896911621	0		-0.45431295776367187	-2.793668701171875	0		1.638600830078125	-0.9894256591796875	0		2.79915625	-0.08149107360839844	0		4.2250673828125	0.5104843444824219	0		5.94350732421875	0.4589581604003906	0		-0.2290048828125	5.87994775390625	0		
-0.009962574005126953	0.007087623119354248	0		0.575171630859375	-2.55684912109375	0		-1.0760382080078126	0.0098590087890625	0		-0.4415490417480469	-2.8008349609375	0		1.6279359130859374	-0.9582484130859374	0		2.792345947265625	-0.060375953674316404	0		4.19905419921875	0.5178770751953125	0		5.94848681640625	0.47089208984375	0		-0.34827001953125	5.86973388671875	0		
-2.2231799364089966E-4	-0.0020316100120544435	0		0.5760714111328125	-2.5538408203125	0		-1.0680609130859375	0.016775550842285155	0		-0.47258834838867186	-2.793345947265625	0		1.575445556640625	-0.9144530639648437	0		2.786939453125	-0.07929291534423828	0		4.19482958984375	0.5109335327148438	0		5.951857421875	0.45343637084960936	0		-0.34835186767578125	5.86976416015625	0		
-3.504849970340729E-4	-0.0020012528896331786	0		0.5759124755859375	-2.5538173828125	0		-1.0590712890625	0.024684598922729492	0		-0.40386148071289063	-2.8013310546875	0		1.5647667236328124	-0.8832821655273437	0		2.76702001953125	-0.06500146484375	0		4.1647255859375	0.5123575439453125	0		5.9483056640625	0.4707891845703125	0		-0.3484091796875	5.869798828125	0		
-4.790840148925781E-4	-0.001969710946083069	0		0.5648305053710938	-2.54763330078125	0		-1.0551553955078126	0.027674564361572264	0		-0.4478105773925781	-2.785641845703125	0		1.5358931884765625	-0.8648492431640625	0		2.756728271484375	-0.0758676528930664	0		4.15662158203125	0.5134365234375	0		5.94821435546875	0.47066574096679686	0		-0.21512591552734375	5.889861328125	0		
-6.056450009346008E-4	-0.0019380780458450317	0		0.5646471557617188	-2.5476142578125	0		-1.042119384765625	0.03853541564941406	0		-0.41509194946289063	-2.792089599609375	0		1.506211181640625	-0.8334097290039062	0		2.709783447265625	-0.06320074844360352	0		4.13042041015625	0.5077622985839844	0		5.9465390625	0.4445922241210937	0		-0.3484035034179688	5.87187548828125	0		
-7.275789976119995E-4	-0.0019069559574127197	0		0.5753640747070312	-2.553761962890625	0		-1.03818115234375	0.04253549575805664	0		-0.4363336791992187	-2.794734375	0		1.51442236328125	-0.8095421142578125	0		2.72022705078125	-0.09240536499023437	0		4.11931396484375	0.5078423767089844	0		5.9607158203125	0.44384173583984377	0		-0.34740707397460935	5.86890185546875	0		
0.009305719375610352	0.007973134994506836	0		0.5812530517578125	-2.5478408203125	0		-1.0202069091796875	0.048331306457519534	0		-0.4294229736328125	-2.786794677734375	0		1.4678079833984374	-0.773865234375	0		2.71666162109375	-0.05541019439697266	0		4.1035009765625	0.5269718627929687	0		5.9500419921875	0.4612306213378906	0		-0.34732608032226564	5.868943359375	0		
0.007021385192871094	-0.003966833114624023	0		0.5691553955078125	-2.540655517578125	0		-1.0262349853515624	0.05348895263671875	0		-0.4414999694824219	-2.777570556640625	0		1.464031982421875	-0.7498355712890625	0		2.6772294921875	-0.07690023040771485	0		4.091148193359375	0.5090242004394532	0		5.949966796875	0.4608787536621094	0		-0.3481602172851562	5.8720009765625	0		
-0.001043355941772461	-0.0018201229572296143	0		0.5658760375976563	-2.545607177734375	0		-1.038161865234375	0.06473906707763671	0		-0.45460845947265627	-2.770330078125	0		1.4172393798828125	-0.7271690063476562	0		2.68629443359375	-0.066124267578125	0		4.076166259765625	0.5150997924804688	0		5.94691796875	0.4398234558105469	0		-0.22886659240722657	5.88025732421875	0		
-0.0011293100118637085	-0.0017953239679336548	0		0.5656717529296875	-2.545608642578125	0		-1.0382447509765624	0.0648121109008789	0		-0.4548232116699219	-2.7702841796875	0		1.4203751220703125	-0.7102572021484375	0		2.66995166015625	-0.08298190307617187	0		4.056121826171875	0.5162356567382812	0		5.949837890625	0.460034912109375	0		-0.2154998779296875	5.892095703125	0		
-0.0012064650058746338	-0.0017732659578323364	0		0.5743471069335937	-2.55374951171875	0		-1.0342738037109376	0.06782472229003907	0		-0.4530072326660156	-2.768270263671875	0		1.39356787109375	-0.6899002075195313	0		2.64320556640625	-0.0606869010925293	0		4.038162841796875	0.522328125	0		5.949783203125	0.45955743408203126	0		-0.3476329040527344	5.87012353515625	0		
0.0017695839405059814	0.0012004950046539307	0		0.5423912963867188	-2.53727734375	0		-1.0211589965820314	0.07969974517822266	0		-0.44812985229492186	-2.762303466796875	0		1.4117789306640625	-0.6692282104492188	0		2.62178759765625	-0.08348426818847657	0		4.0452109375	0.5280308837890625	0		5.95160302734375	0.4157249450683594	0		-0.3473965148925781	5.87016064453125	0		
-0.0013369829654693603	-0.0017362469434738159	0		0.59206494140625	-2.546048095703125	0		-1.027139404296875	0.0848631591796875	0		-0.448341064453125	-2.76226171875	0		1.423892578125	-0.6554713745117188	0		2.6321005859375	-0.05876390838623047	0		4.02519580078125	0.5291327514648437	0		5.93957568359375	0.4381234436035156	0		-0.21382054138183593	5.89017333984375	0		
-0.0013914480209350586	-0.0017201730012893677	0		0.5648709716796875	-2.545653564453125	0		-1.033112060546875	0.09002767944335938	0		-0.4536412353515625	-2.768143798828125	0		1.4319683837890624	-0.6446585083007812	0		2.604878173828125	-0.06948235321044922	0		4.025171142578125	0.5289230346679688	0		5.9395361328125	0.4375676879882813	0		-0.19936328125	5.901986328125	0		
-0.0014392869472503662	-0.0017046229839324952	0		0.578735595703125	-2.541885498046875	0		-1.02909375	0.09404118347167968	0		-0.4538490905761719	-2.76810205078125	0		1.43798974609375	-0.6378185424804688	0		2.570784423828125	-0.07209661102294922	0		3.999065185546875	0.5231045532226563	0		5.9466337890625	0.43672772216796873	0		-0.33140634155273435	5.881037109375	0		
-0.001480591058731079	-0.0016883230209350586	0		0.5385313720703125	-2.5422890625	0		-1.0081779174804688	0.09079664611816406	0		-0.4540562133789062	-2.76805859375	0		1.447078369140625	-0.6270281372070312	0		2.58564501953125	-0.07846435546875	0		3.9911484375	0.5290032958984375	0		5.94432177734375	0.413723388671875	0		-0.3301105041503906	5.88005810546875	0		
0.010514156341552734	1.4496099948883056E-4	0		0.5792562866210937	-2.54793603515625	0		-1.0000997924804687	0.09775381469726563	0		-0.47226116943359375	-2.76773388671875	0		1.328219482421875	-0.6122646484375	0		2.5851611328125	-0.042595733642578126	0		3.99133203125	0.540771728515625	0		5.9516474609375	0.4474351806640625	0		-0.3638671569824219	5.87462255859375	0		
0.0055638737678527835	0.005244091987609863	0		0.5583140869140625	-2.531626953125	0		-1.011949951171875	0.10902587127685547	0		-0.420520751953125	-2.771486083984375	0		1.436138671875	-0.6140011596679688	0		2.539779052734375	-0.06503933715820312	0		3.974557373046875	0.554799072265625	0		5.951626953125	0.4468019714355469	0		-0.3304122314453125	5.88115673828125	0		
-0.0015676690340042114	-0.0016175810098648072	0		0.563905029296875	-2.5457265625	0		-1.011966552734375	0.10912138366699219	0		-0.46959652709960936	-2.762667724609375	0		1.295107177734375	-0.6108724365234375	0		2.537953369140625	-0.0521480712890625	0		3.966384521484375	0.5426923217773437	0		5.93940771484375	0.43451422119140626	0		-0.2128607177734375	5.892384765625	0		
-0.0015896199941635132	-0.00158125901222229	0		0.527906982421875	-2.53316650390625	0		-1.011981201171875	0.10922445678710938	0		-0.43892971801757813	-2.771083984375	0		1.2919827880859376	-0.6148743896484375	0		2.543802490234375	-0.06037232208251953	0		3.9594931640625	0.5485751342773437	0		5.9423779296875	0.4545386962890625	0		-0.34482101440429686	5.8725009765625	0		
-0.0016125080585479737	-0.0015363340377807617	0		0.5277193603515625	-2.533156005859375	0		-1.0738009033203124	0.12230672454833984	0		-0.5080144348144531	-2.762928466796875	0		1.232880126953125	-0.6169873046875	0		2.52435888671875	-0.02318366813659668	0		3.959505859375	0.5483623657226563	0		5.95135302734375	0.41034109497070315	0		-0.32932232666015626	5.88133154296875	0		
0.0014079209566116332	0.0014710750579833985	0		0.5653881225585937	-2.542731689453125	0		-1.075677490234375	0.13145919799804687	0		-0.46240835571289063	-2.775565185546875	0		1.2269105224609376	-0.6109155883789062	0		2.527842041015625	-0.0543457145690918	0		3.951609375	0.5542951049804687	0		5.95155810546875	0.4443795166015625	0		-0.32996511840820314	5.8824228515625	0		
-0.0016714630126953125	-0.001414378046989441	0		0.5533046875	-2.536508544921875	0		-1.0816224365234375	0.13668264770507813	0		-0.4754893188476563	-2.768266845703125	0		1.2176697998046875	-0.6217761840820313	0		2.534264404296875	-0.025523975372314454	0		3.93970556640625	0.5603218383789063	0		5.9393310546875	0.43224673461914065	0		-0.19634100341796876	5.90140283203125	0		
-0.011568052291870117	0.007823579788208008	0		0.5422464599609375	-2.529282958984375	0		-1.0066813354492188	0.1346285858154297	0		-0.4566583862304687	-2.767463623046875	0		1.211487060546875	-0.6286622314453125	0		2.51013037109375	-0.031192041397094725	0		3.927695068359375	0.5603905029296875	0		5.94229052734375	0.4524997253417969	0		-0.18189030456542968	5.91326953125	0		
-0.0017622280120849609	-0.0012387410402297974	0		0.5509436645507813	-2.53835302734375	0		-1.0935396728515625	0.14714959716796874	0		-0.494822265625	-2.766744384765625	0		1.2052994384765625	-0.635522705078125	0		2.49014501953125	-0.026886823654174805	0		3.927669189453125	0.5603173217773437	0		5.94225439453125	0.4522179260253906	0		-0.16751365661621093	5.9241484375	0		
-0.0018218139410018921	-0.0011280510425567627	0		0.560654296875	-2.547419189453125	0		-1.0094933471679688	0.152956787109375	0		-0.4702328186035156	-2.783013671875	0		1.2111221923828126	-0.64154736328125	0		2.484212890625	-0.018765031814575197	0		3.9317236328125	0.5662317504882812	0		5.94406689453125	0.40873300170898436	0		-0.28358303833007814	5.91211572265625	0		
0.008268425941467285	0.008837449073791503	0		0.5137229614257812	-2.534557373046875	0		-1.0764215087890625	0.16217604064941407	0		-0.46324050903320313	-2.774989013671875	0		1.22282958984375	-0.6546398315429688	0		2.51960302734375	0.009739553451538086	0		3.93187646484375	0.5792626342773437	0		5.9513779296875	0.4430224609375	0		-0.3176015625	5.90679248046875	0		
0.001081699013710022	0.002092008113861084	0		0.5624453735351562	-2.545204345703125	0		-1.0114874267578124	0.162294189453125	0		-0.46945050048828124	-2.780743896484375	0		1.2019869384765625	-0.639181396484375	0		2.46140673828125	0.002773977041244507	0		3.923809814453125	0.5794771728515625	0		5.9391201171875	0.4314828796386719	0		-0.1672939910888672	5.9245390625	0		
